HIERARCHY
ROOT hip
{
  OFFSET -97.0187 66.8387 -274.327
  CHANNELS 6 Xposition Yposition Zposition Zrotation Xrotation Yrotation
  JOINT abdomen
  {
    OFFSET 0 20.6881 -0.73152
    CHANNELS 3 Zrotation Xrotation Yrotation
    JOINT chest
    {
      OFFSET 0 11.7043 -0.48768
      CHANNELS 3 Zrotation Xrotation Yrotation
      JOINT neck
      {
        OFFSET 0 22.1894 -2.19456
        CHANNELS 3 Zrotation Xrotation Yrotation
        JOINT head
        {
          OFFSET -0.24384 7.07133 1.2192
          CHANNELS 3 Zrotation Xrotation Yrotation
          JOINT leftEye
          {
            OFFSET 4.14528 8.04674 8.04672
            CHANNELS 3 Zrotation Xrotation Yrotation
            End Site
            {
              OFFSET 1 0 0
            }
          }
          JOINT rightEye
          {
            OFFSET -3.6576 8.04674 8.04672
            CHANNELS 3 Zrotation Xrotation Yrotation
            End Site
            {
              OFFSET 1 0 0
            }
          }
        }
      }
      JOINT rCollar
      {
        OFFSET -2.68224 19.2634 -4.8768
        CHANNELS 3 Zrotation Xrotation Yrotation
        JOINT rShldr
        {
          OFFSET -8.77824 -1.95073 1.46304
          CHANNELS 3 Zrotation Xrotation Yrotation
          JOINT rForeArm
          {
            OFFSET -28.1742 -1.7115 0.48768
            CHANNELS 3 Zrotation Xrotation Yrotation
            JOINT rHand
            {
              OFFSET -22.5879 0.773209 7.07136
              CHANNELS 3 Zrotation Xrotation Yrotation
              JOINT rThumb1
              {
                OFFSET -1.2192 -0.487915 3.41376
                CHANNELS 3 Zrotation Xrotation Yrotation
                JOINT rThumb2
                {
                  OFFSET -3.37035 -0.52449 3.41376
                  CHANNELS 3 Zrotation Xrotation Yrotation
                  End Site
                  {
                    OFFSET -1.78271 -1.18214 1.43049
                  }
                }
              }
              JOINT rIndex1
              {
                OFFSET -7.75947 0.938293 5.60832
                CHANNELS 3 Zrotation Xrotation Yrotation
                JOINT rIndex2
                {
                  OFFSET -2.54057 -0.884171 1.56538
                  CHANNELS 3 Zrotation Xrotation Yrotation
                  End Site
                  {
                    OFFSET -1.62519 -0.234802 1.16502
                  }
                }
              }
              JOINT rMid1
              {
                OFFSET -8.24714 1.18213 3.41376
                CHANNELS 3 Zrotation Xrotation Yrotation
                JOINT rMid2
                {
                  OFFSET -3.10165 -0.590103 1.0647
                  CHANNELS 3 Zrotation Xrotation Yrotation
                  End Site
                  {
                    OFFSET -2.48547 -0.328903 0.83742
                  }
                }
              }
              JOINT rRing1
              {
                OFFSET -8.82822 0.546677 1.51678
                CHANNELS 3 Zrotation Xrotation Yrotation
                JOINT rRing2
                {
                  OFFSET -2.60934 -0.819778 -0.0198488
                  CHANNELS 3 Zrotation Xrotation Yrotation
                  End Site
                  {
                    OFFSET -2.33842 -0.294052 0.168128
                  }
                }
              }
              JOINT rPinky1
              {
                OFFSET -8.27202 -0.0477905 -0.4584
                CHANNELS 3 Zrotation Xrotation Yrotation
                JOINT rPinky2
                {
                  OFFSET -1.82734 -0.647385 -0.700984
                  CHANNELS 3 Zrotation Xrotation Yrotation
                  End Site
                  {
                    OFFSET -1.69225 -0.51767 -0.607171
                  }
                }
              }
            }
          }
        }
      }
      JOINT lCollar
      {
        OFFSET 2.68224 19.2634 -4.8768
        CHANNELS 3 Zrotation Xrotation Yrotation
        JOINT lShldr
        {
          OFFSET 8.77824 -1.95073 1.46304
          CHANNELS 3 Zrotation Xrotation Yrotation
          JOINT lForeArm
          {
            OFFSET 28.1742 -1.7115 0.48768
            CHANNELS 3 Zrotation Xrotation Yrotation
            JOINT lHand
            {
              OFFSET 22.5879 0.773209 7.07136
              CHANNELS 3 Zrotation Xrotation Yrotation
              JOINT lThumb1
              {
                OFFSET 1.2192 -0.487915 3.41376
                CHANNELS 3 Zrotation Xrotation Yrotation
                JOINT lThumb2
                {
                  OFFSET 3.37035 -0.52449 3.41376
                  CHANNELS 3 Zrotation Xrotation Yrotation
                  End Site
                  {
                    OFFSET 1.78271 -1.18214 1.43049
                  }
                }
              }
              JOINT lIndex1
              {
                OFFSET 7.75947 0.938293 5.60832
                CHANNELS 3 Zrotation Xrotation Yrotation
                JOINT lIndex2
                {
                  OFFSET 2.54057 -0.884171 1.56538
                  CHANNELS 3 Zrotation Xrotation Yrotation
                  End Site
                  {
                    OFFSET 1.62519 -0.234802 1.16502
                  }
                }
              }
              JOINT lMid1
              {
                OFFSET 8.24714 1.18213 3.41376
                CHANNELS 3 Zrotation Xrotation Yrotation
                JOINT lMid2
                {
                  OFFSET 3.10165 -0.590103 1.0647
                  CHANNELS 3 Zrotation Xrotation Yrotation
                  End Site
                  {
                    OFFSET 2.48547 -0.328903 0.83742
                  }
                }
              }
              JOINT lRing1
              {
                OFFSET 8.82822 0.546677 1.51678
                CHANNELS 3 Zrotation Xrotation Yrotation
                JOINT lRing2
                {
                  OFFSET 2.60934 -0.819778 -0.0198488
                  CHANNELS 3 Zrotation Xrotation Yrotation
                  End Site
                  {
                    OFFSET 2.33842 -0.294052 0.168128
                  }
                }
              }
              JOINT lPinky1
              {
                OFFSET 8.27202 -0.0477905 -0.4584
                CHANNELS 3 Zrotation Xrotation Yrotation
                JOINT lPinky2
                {
                  OFFSET 1.82734 -0.647385 -0.700984
                  CHANNELS 3 Zrotation Xrotation Yrotation
                  End Site
                  {
                    OFFSET 1.69225 -0.51767 -0.607171
                  }
                }
              }
            }
          }
        }
      }
    }
  }
  JOINT rButtock
  {
    OFFSET -8.77824 4.35084 1.2192
    CHANNELS 3 Zrotation Xrotation Yrotation
    JOINT rThigh
    {
      OFFSET 0 -1.70687 -2.19456
      CHANNELS 3 Zrotation Xrotation Yrotation
      JOINT rShin
      {
        OFFSET 0 -36.8199 0.73152
        CHANNELS 3 Zrotation Xrotation Yrotation
        JOINT rFoot
        {
          OFFSET 0.73152 -45.1104 -5.12064
          CHANNELS 3 Zrotation Xrotation Yrotation
          End Site
          {
            OFFSET -1.1221 -3.69964 12.103
          }
        }
      }
    }
  }
  JOINT lButtock
  {
    OFFSET 8.77824 4.35084 1.2192
    CHANNELS 3 Zrotation Xrotation Yrotation
    JOINT lThigh
    {
      OFFSET 0 -1.70687 -2.19456
      CHANNELS 3 Zrotation Xrotation Yrotation
      JOINT lShin
      {
        OFFSET 0 -36.8199 0.73152
        CHANNELS 3 Zrotation Xrotation Yrotation
        JOINT lFoot
        {
          OFFSET -0.73152 -45.1104 -5.12064
          CHANNELS 3 Zrotation Xrotation Yrotation
          End Site
          {
            OFFSET 1.1221 -3.69964 12.103
          }
        }
      }
    }
  }
}
MOTION
Frames:	6
Frame Time:	0.00833333
-52.0667 64.4548 -161.915 0.729263 11.3633 155.748 6.99164 19.5433 2.3844 1.03586 -9.5178 0.883416 -3.62434 -1.27184 -2.96417 3.8622 -14.8309 -4.33182 -0 0 0 -0 0 0 -9.19972e-014 1.139e-013 2.46962e-013 65.4131 60.8142 12.0741 -28.384 -33.4757 72.7035 -0.00373771 -1.80384 -0.253573 8.99049e-010 2.06777e-010 -5.177e-010 1.5479e-009 3.57644e-010 -8.96857e-010 8.99046e-010 2.06784e-010 -5.17713e-010 7.73091 5.47488 0.417314 8.99045e-010 2.0678e-010 -5.17702e-010 2.90554 0.965183 0.102902 8.99055e-010 2.0678e-010 -5.17702e-010 10.2786 0.731801 0.0259123 8.99048e-010 2.06776e-010 -5.17692e-010 2.22167 -0.733487 -0.20892 -9.20152e-014 1.13908e-013 2.46763e-013 -89.7652 40.4098 7.22263 -27.7613 -29.3437 66.2141 0.0142152 -3.41932 0.481126 -7.16052e-011 -2.63837e-010 -6.68072e-010 -1.22058e-010 -4.60021e-010 -1.15035e-009 -7.16093e-011 -2.63837e-010 -6.6807e-010 -7.73091 5.47488 -0.417314 -7.16056e-011 -2.63837e-010 -6.68067e-010 -2.90554 0.965183 -0.102902 -7.16081e-011 -2.63835e-010 -6.68074e-010 -10.2786 0.731801 -0.0259123 -7.16052e-011 -2.63836e-010 -6.68083e-010 -2.22167 -0.733487 0.20892 -2.03217e-016 0 -3.88251e-019 -8.47044 -30.7256 -11.2638 -172.291 81.7884 173.719 -0.417342 0.80983 4.11143 2.03217e-016 0 3.88251e-019 -1.91585 -50.9502 -6.14099 1.53915 65.9731 -2.03636 -0.334873 -0.747997 -4.91037 
-52.4991 64.9509 -162.467 0.793771 11.0416 155.97 6.88177 19.355 1.98242 1.03856 -9.5206 0.766949 -3.42376 -1.54241 -2.78907 3.56234 -14.5645 -4.07301 -0 0 0 -0 0 0 -1.84221e-013 4.60559e-013 2.39775e-013 66.2318 59.0044 10.5725 -28.2116 -31.9245 70.3012 -0.00603276 -2.26377 -0.318305 -1.47653e-011 -3.17308e-009 1.31436e-009 -3.39256e-011 -5.484e-009 2.26953e-009 -1.47655e-011 -3.17307e-009 1.31435e-009 7.73091 5.47488 0.417314 -1.4769e-011 -3.17307e-009 1.31436e-009 2.90554 0.965183 0.102902 -1.47578e-011 -3.17307e-009 1.31436e-009 10.2786 0.731801 0.0259123 -1.47667e-011 -3.17308e-009 1.31437e-009 2.22167 -0.733487 -0.20892 -1.84281e-013 4.60572e-013 2.39542e-013 -89.6241 39.3189 7.10708 -27.6775 -28.9514 65.5923 0.0180177 -3.8341 0.539663 9.19893e-010 7.27908e-009 -3.00161e-009 1.59745e-009 1.25828e-008 -5.17805e-009 9.19888e-010 7.27908e-009 -3.00161e-009 -7.73091 5.47488 -0.417314 9.19892e-010 7.27908e-009 -3.00161e-009 -2.90554 0.965183 -0.102902 9.19893e-010 7.27908e-009 -3.00162e-009 -10.2786 0.731801 -0.0259123 9.19895e-010 7.27908e-009 -3.00163e-009 -2.22167 -0.733487 0.20892 -2.03217e-016 0 -3.88251e-019 -8.8947 -31.7863 -12.323 -171.146 82.9091 172.486 -0.358881 -1.4399 1.96886 2.03217e-016 0 3.88251e-019 -2.05762 -50.1426 -6.01969 1.4943 65.4318 -1.95832 -0.31434 -1.19882 -4.67741 
-52.9171 65.4672 -163.015 0.854733 10.7322 156.22 6.76441 19.1847 1.651 1.04703 -9.52548 0.671565 -3.2461 -1.7974 -2.6347 3.2861 -14.3213 -3.84622 -0 0 0 -0 0 0 -2.32941e-013 6.48824e-013 2.22738e-013 67.0009 57.0163 9.20965 -27.968 -30.4253 67.9278 -0.0077313 -2.50972 -0.352946 -5.98806e-010 -5.31976e-009 2.43736e-009 -1.04451e-009 -9.19503e-009 4.21077e-009 -5.98805e-010 -5.31975e-009 2.43735e-009 7.73091 5.47488 0.417314 -5.98809e-010 -5.31975e-009 2.43736e-009 2.90554 0.965183 0.102902 -5.98798e-010 -5.31976e-009 2.43735e-009 10.2786 0.731801 0.0259123 -5.98808e-010 -5.31976e-009 2.43737e-009 2.22167 -0.733487 -0.20892 -2.33026e-013 6.48842e-013 2.2249e-013 -89.4211 38.367 6.94988 -27.5823 -28.5266 64.902 0.022184 -4.24807 0.598135 1.51607e-009 1.17121e-008 -4.32196e-009 2.63138e-009 2.02493e-008 -7.45724e-009 1.51606e-009 1.17121e-008 -4.32195e-009 -7.73091 5.47488 -0.417314 1.51607e-009 1.17121e-008 -4.32196e-009 -2.90554 0.965183 -0.102902 1.51607e-009 1.17121e-008 -4.32196e-009 -10.2786 0.731801 -0.0259123 1.51607e-009 1.17121e-008 -4.32197e-009 -2.22167 -0.733487 0.20892 -2.03217e-016 0 -3.88251e-019 -9.22476 -32.7678 -13.2126 -169.24 84.2401 170.502 -0.45031 -3.32483 0.178586 2.03217e-016 0 3.88251e-019 -2.21238 -49.2922 -5.94688 1.4449 64.8362 -1.88328 -0.282125 -1.62642 -4.39748 
-53.3258 65.9979 -163.555 0.916466 10.4417 156.512 6.63836 19.0493 1.40427 1.05767 -9.54035 0.601734 -3.08991 -2.03232 -2.50413 3.0358 -14.1104 -3.65813 -0 0 0 -0 0 0 -2.15935e-013 5.95528e-013 1.80662e-013 67.7444 54.827 7.98542 -27.677 -28.9493 65.4605 -0.00802901 -2.49487 -0.350863 -6.9272e-010 -5.69504e-009 2.52524e-009 -1.20609e-009 -9.84595e-009 4.36363e-009 -6.92719e-010 -5.69503e-009 2.52522e-009 7.73091 5.47488 0.417314 -6.92724e-010 -5.69503e-009 2.52523e-009 2.90554 0.965183 0.102902 -6.92713e-010 -5.69503e-009 2.52523e-009 10.2786 0.731801 0.0259123 -6.92724e-010 -5.69503e-009 2.52524e-009 2.22167 -0.733487 -0.20892 -2.16015e-013 5.95546e-013 1.80431e-013 -89.1403 37.5621 6.73634 -27.4689 -28.0499 64.129 0.0268012 -4.68381 0.65973 1.54142e-009 1.15601e-008 -4.1055e-009 2.67526e-009 1.99895e-008 -7.08439e-009 1.54141e-009 1.15601e-008 -4.10549e-009 -7.73091 5.47488 -0.417314 1.54142e-009 1.15601e-008 -4.1055e-009 -2.90554 0.965183 -0.102902 1.54142e-009 1.15601e-008 -4.1055e-009 -10.2786 0.731801 -0.0259123 1.54142e-009 1.15601e-008 -4.10551e-009 -2.22167 -0.733487 0.20892 -2.03217e-016 0 -3.88251e-019 -9.42351 -33.6835 -13.8992 -165.518 85.7905 166.713 -0.621333 -4.71164 -1.2164 2.03217e-016 0 3.88251e-019 -2.37413 -48.3779 -5.91874 1.38905 64.1735 -1.81183 -0.234041 -2.03047 -4.05676 
-53.7174 66.5366 -164.093 0.976997 10.1647 156.838 6.50937 18.9487 1.22441 1.06762 -9.56031 0.551574 -2.94743 -2.25393 -2.3932 2.7938 -13.9342 -3.50441 -0 0 0 -0 0 0 -1.5898e-013 3.96094e-013 1.30673e-013 68.4389 52.4562 6.91264 -27.3001 -27.3729 62.8851 -0.00702419 -2.28215 -0.320915 -5.00548e-010 -5.06621e-009 2.0446e-009 -8.72234e-010 -8.76255e-009 3.53439e-009 -5.00549e-010 -5.0662e-009 2.04459e-009 7.73091 5.47488 0.417314 -5.00552e-010 -5.0662e-009 2.0446e-009 2.90554 0.965183 0.102902 -5.00542e-010 -5.0662e-009 2.0446e-009 10.2786 0.731801 0.0259123 -5.00553e-010 -5.0662e-009 2.04461e-009 2.22167 -0.733487 -0.20892 -1.59039e-013 3.96112e-013 1.3048e-013 -88.797 36.8875 6.47994 -27.3348 -27.5235 63.2949 0.0322106 -5.14393 0.724862 1.23476e-009 8.76232e-009 -2.9878e-009 2.1432e-009 1.51561e-008 -5.15642e-009 1.23476e-009 8.76232e-009 -2.9878e-009 -7.73091 5.47488 -0.417314 1.23478e-009 8.76234e-009 -2.9878e-009 -2.90554 0.965183 -0.102902 1.23476e-009 8.76232e-009 -2.9878e-009 -10.2786 0.731801 -0.0259123 1.23477e-009 8.76232e-009 -2.98781e-009 -2.22167 -0.733487 0.20892 -2.03217e-016 0 -3.88251e-019 -9.49114 -34.5579 -14.4336 -155.524 87.5242 156.66 -0.829946 -5.78946 -2.35791 2.03217e-016 0 3.88251e-019 -2.53253 -47.4096 -5.92247 1.32802 63.4383 -1.74162 -0.172521 -2.40559 -3.67713 
-54.0916 67.0804 -164.632 1.02924 9.89014 157.17 6.37939 18.847 1.09183 1.08711 -9.5713 0.51544 -2.82916 -2.4672 -2.29811 2.57069 -13.771 -3.37252 -0 0 0 -0 0 0 -9.27431e-014 1.66085e-013 9.4104e-014 69.0715 49.9491 5.95391 -26.829 -25.7547 60.3588 -0.00513084 -1.92969 -0.271308 -2.30054e-010 -4.06882e-009 1.37913e-009 -4.02727e-010 -7.0419e-009 2.38565e-009 -2.30056e-010 -4.0688e-009 1.37912e-009 7.73091 5.47488 0.417314 -2.30058e-010 -4.06881e-009 1.37913e-009 2.90554 0.965183 0.102902 -2.30049e-010 -4.06881e-009 1.37913e-009 10.2786 0.731801 0.0259123 -2.30059e-010 -4.06881e-009 1.37914e-009 2.22167 -0.733487 -0.20892 -9.27824e-014 1.66102e-013 9.39463e-014 -88.4181 36.3368 6.20184 -27.184 -26.9704 62.4255 0.037989 -5.57571 0.786093 8.11854e-010 5.18354e-009 -1.67031e-009 1.40967e-009 8.97206e-009 -2.88362e-009 8.1185e-010 5.18354e-009 -1.67031e-009 -7.73091 5.47488 -0.417314 8.11874e-010 5.18358e-009 -1.67031e-009 -2.90554 0.965183 -0.102902 8.11851e-010 5.18354e-009 -1.67031e-009 -10.2786 0.731801 -0.0259123 8.11861e-010 5.18354e-009 -1.67032e-009 -2.22167 -0.733487 0.20892 -2.03217e-016 0 -3.88251e-019 -9.45634 -35.3624 -14.8246 -103.329 88.9774 104.409 -1.03811 -6.70384 -3.24262 2.03217e-016 0 3.88251e-019 -2.69718 -46.4285 -5.96815 1.26625 62.6635 -1.67427 -0.102979 -2.75652 -3.27286 
